<svg id="L_1" data-name="L 1" xmlns="http://www.w3.org/2000/svg" viewBox="0 0 1596.64 595.28"><defs><style>.cls-1{fill:#0a2845;}</style></defs><path class="cls-1" d="M920.79,314.11a.72.72,0,0,0-1.34-.22c-.83,1.56-1.46,2.75-2.08,3.94-7.42,14.37-17.3,26.4-32.36,33.28a46,46,0,0,1-10.52,3.41c-3,.55-4.4,1.82-5.58,4.54-7.19,16.61-16.84,31.43-31.89,42.1-8.34,5.9-17.57,8.88-27.88,8.06-15.37-1.23-26.34-10.53-30.67-25.55-4.53-15.7-2.87-31.36.47-46.86a145.44,145.44,0,0,1,25.43-56.66c6.74-9.06,14.8-17,25.67-21.28,6-2.32,12.05-3.73,18.33-.73a5.84,5.84,0,0,0,3.54.05c16.33-3.72,27.82,3.57,31.46,19.93,3.87,17.39,1.59,34.37-3.24,51.2-1,3.36-1.6,6.81-2.49,10.19,2.85-1.79,6.07-3.08,8.82-5,12.91-9.15,20.31-22.27,26.57-36.4,3.54-8,3.54-16.55,5.57-24.75,3.68-14.85,11.29-26.56,26.63-31.37a39.17,39.17,0,0,1,13.34-1.74c7.78.37,12.58,6.89,11,16-.2,1.17-1.77,2.38-3,3-15.78,8.49-21.4,19.59-17.74,37,2.37,11.25,5.63,22.31,8.53,33.45a11.94,11.94,0,0,0,1,2.13.72.72,0,0,0,1,.29c4.45-2.75,8.86-5.21,12.92-8.15q11-8,21.54-16.53c1.51-1.23,2.42-3.58,3-5.59,9-34.09,19.12-67.85,32-100.71,8.16-20.83,16.86-41.43,29.78-59.91,6.07-8.69,13-16.21,23.33-20A20,20,0,0,1,1109,137.45c1.83,14.63-1.84,28.39-6.86,41.82-10.75,28.71-26.86,54.22-47.11,77.18-6.62,7.52-13.19,15.08-19.49,22.87a26,26,0,0,0-4.4,8.6,218.66,218.66,0,0,0-6.55,26.44c.8-1.41,1.66-2.79,2.41-4.23a161.81,161.81,0,0,1,28.06-38.94c6.91-7,14.61-13,24.92-14.19a18.57,18.57,0,0,1,19.69,12.85,38.25,38.25,0,0,1,.34,21.59c-3.75,14.17-8.18,28.15-12.38,42.2-3.74,12.47-7.67,24.89-11.24,37.41a28.43,28.43,0,0,0-.78,9.39c.28,4.73,4.07,6.71,7.41,3.61a89.64,89.64,0,0,0,13.08-14.6c12.05-17.46,22-36.13,28.78-56.24,3.64-10.86,5.2-22.41,7.89-33.61,1-4.38,2.56-8.66,4-12.94s4.56-7.61,9-8.23a68.08,68.08,0,0,1,16.69-.39c4.56.49,6.09,3.47,5.09,8.15-3.7,17.3-8,34.47-11.21,51.87-3.28,18.05-5.58,36.29-8,54.49-.46,3.44.13,7.1.76,10.57.53,2.94,2.42,3.75,4.45,1,5.46-7.38,11.55-14.42,16-22.37,8.65-15.4,16.43-31.3,24.35-47.1.92-1.84,1.32-4.79.48-6.51-7.08-14.6-6-29.27-.94-44,2.22-6.52,4.75-13,10.15-17.62a20.73,20.73,0,0,1,6.21-3.89c10.23-3.68,17.1.95,17.78,11.81,1,15.85-4.26,30.59-8.93,45.42-.69,2.18-1.56,4.3-2.41,6.43-1.1,2.76-.29,4.44,2.44,4.81s5.6.82,8.06.06c8.06-2.52,14.34-7.36,17.24-15.67,3.08-8.8,5.9-17.69,9.1-26.44,4-10.83,18.4-16,28.6-10.46,3.81,2.07,4.21,5.4,2.85,9.25-3.16,8.9-6.15,17.87-8.83,26.93-7.13,24.17-16.9,47.6-20.6,72.73-.53,3.66-.75,7.36-1,11.05-.23,3,.3,6.53,3.5,7,2.1.32,5.47-1.35,6.8-3.19,6.07-8.44,12.36-16.86,17.21-26a407.46,407.46,0,0,0,29.27-71.92c1.64-5.37,3.53-10.68,5.62-15.9,4.14-10.34,19.22-15.38,29-9.77,3.47,2,4.4,5,3.13,8.81-4.19,12.48-8.71,24.87-12.44,37.49-6.37,21.54-12.37,43.2-18.18,64.9-.92,3.42-.53,7.41.14,11,1,5.57,4.07,6.76,8.39,3.07a54.85,54.85,0,0,0,9.29-10.89c11.21-16.45,18.93-34.61,25.46-53.31,6.42-18.38,15.27-35.24,29.86-48.56,8.67-7.9,18.23-13.89,30.35-15.18,17.43-1.86,29.34,8.09,30,25.68.44,11.27-3.51,21.34-9.31,30.65-11.73,18.84-28.69,31.49-49,39.87-8.44,3.49-8.86,3.5-7.75,13,.53,4.56,1.27,9.32,3.09,13.48,3.65,8.4,12.19,11.68,21,8.88,9.41-3,16.19-9.72,22.53-16.76,11.08-12.31,19.6-26.4,27.09-41.12,3.48-6.85,6.82-13.77,10.33-20.6,2.16-4.19,4.54-5.2,7.78-3.64a7,7,0,0,1,3.11,8.78c-10.23,25.32-22.47,49.53-40.6,70.22-8.44,9.62-17.78,18.55-30.47,22.42-15.19,4.65-29.72,3.75-42-7.59-7.34-6.78-10.89-15.66-11.9-25.56-.11-1.09-.16-2.18-.3-3.27,0-.21-.32-.39-.93-1.11-.91,1.44-1.76,2.71-2.52,4-7,12.18-14.39,24.13-26.93,31.56a31.32,31.32,0,0,1-9.88,3.85c-11.87,2.23-21.4-4-23.86-15.85-1.13-5.46-1.12-11.15-1.58-16.74a18.91,18.91,0,0,0-.26-2.7.71.71,0,0,0-1.28-.22c-.6.9-1.19,1.8-1.76,2.71-6.27,10-12.88,19.89-22.43,27.13-17.19,13-36.84,5-38.57-16.4-.9-11.18.54-22.73,2.3-33.9,1.49-9.55,4.94-18.79,7.51-28.18.08-.27.19-.63.36-1.1a.71.71,0,0,0-.92-.91,19.58,19.58,0,0,1-4.43,1.28,87.71,87.71,0,0,1-17.88.63c-2.5-.16-3.46.2-4.26,2.25-7.86,20.23-19.19,38.52-31.73,56.09-6.07,8.5-12.78,16.49-21.74,22.24-13.14,8.43-26.6,3.74-31.42-11.06-3.25-10-3.07-20.28-3-30.58a13.57,13.57,0,0,0-.29-3.48.71.71,0,0,0-1.31-.16c-1,1.82-2,3.64-3,5.47-6.77,12.68-14.87,24.39-25.43,34.21-6.72,6.24-14.45,10.4-24.09,9.7-9-.64-14.58-5.69-17.87-13.67s-3.18-16.1-1.91-24.33c2.94-19.08,9.61-37.12,15.53-55.37,2.83-8.72,5.17-17.6,7.42-26.49a6.5,6.5,0,0,0,.17-.86,4.13,4.13,0,0,0-5.94-4.07,17.06,17.06,0,0,0-3.51,2.55,97.29,97.29,0,0,0-12.92,16.35c-16.32,25.84-30,53-38,82.69-1.24,4.64-2.4,9.29-3.57,13.94s-4.18,7.42-8.82,8.08a29.24,29.24,0,0,1-8.56.07c-9.33-1.49-13-5.89-11.13-15.09,3.56-17.87,7.8-35.6,11.77-53.39.77-3.45,1.6-6.9,2.51-10.78a.71.71,0,0,0-1.09-.74c-6.93,4.79-13.08,9.66-19.91,13.21-7,3.63-8.49,7.91-7.24,15.54,2.56,15.67-1.09,30.34-11.17,42.92-10.44,13-30.24,19.23-46.13,14.45-15.26-4.58-27.42-21.77-12-42.16,7.2-9.5,17.22-15.57,27.64-21,6.43-3.34,6.41-3.4,5-10.21-1-4.69-2.14-9.36-3.06-14.07C922.18,322.9,921.57,318.91,920.79,314.11Zm-95.2-13.75a13.47,13.47,0,0,0-2,2.88c-9.81,19.12-15.26,37.14-16.63,58.67-.43,6.71,0,13.49,3.28,19.66,2.78,5.27,8,7.93,13,5.75a29.7,29.7,0,0,0,11-8.13c5.66-7.33,10.36-14.69,15.4-22.5,1.51-2.36.51-3.45-1.64-4.82a59.72,59.72,0,0,1-10.76-8.06c-10.58-10.71-12.61-24.19-11.65-38.5C825.67,303.78,825.59,302.23,825.59,300.36Zm219.8-51.64c7.94-11.84,16.38-23.37,23.64-35.61,9.93-16.75,19-34.06,22.75-53.47a53.57,53.57,0,0,0,.68-14.14c-.27-3.41-2.32-3.78-4.5-1a80.83,80.83,0,0,0-6.67,9.86c-14.42,25.38-25,52.36-33.52,80.24L1042.16,253ZM1388.07,338a.7.7,0,0,0,1.06.79c5.13-3.4,10.45-6.54,15.35-10.25,14.23-10.75,24.55-24.22,27.75-42.22a17.49,17.49,0,0,0-.57-8c-1-3.06-3.22-5.19-7.41-3.58a.51.51,0,0,0-.15.07,41.28,41.28,0,0,0-9.55,8.38,118,118,0,0,0-21.16,37.35C1391.36,326.31,1389.83,332.22,1388.07,338Zm-531.74.1a.72.72,0,0,0,1.06-.33,28.67,28.67,0,0,0,1.24-3.46c1.79-7.17,3.78-14.3,5.2-21.55,1.83-9.27,3.54-18.65,1.56-28.12-.87-4.13-2.06-8.81-7.1-9.57s-7.9,3.24-9.91,7.2c-5.18,10.23-7.66,21.1-6.28,32.59C843.25,324.53,847.72,332.23,856.33,338.14Zm73.6,24c-9.32,6.21-18.23,11.33-23.34,20.75a13.83,13.83,0,0,0-1.38,6.31c0,3.66,1.34,6.7,5.26,7.91a12.42,12.42,0,0,0,13-3.87C930.93,384.44,931.29,374.14,929.93,362.15Z"/><path class="cls-1" d="M225,277.23c4.48.48,10.36-3.48,21.61-15.11l-1.39,12.55c0,1.19.51,1,1.12.28a17.66,17.66,0,0,0,1.45-2.12c8-16.19,13.53-33.23,17.81-50.74,7.35-30.1,15-60.14,22.43-90.22,1.21-4.88,3.53-8.91,7.8-11.65,4-2.57,7.64-2.43,10.74,1.17C317,133.46,324.47,147,326,163.22c1,10.81-4,18.19-13.71,22.79-11.72,5.57-17.94,15.71-21.23,27.85-3,11.08-1.44,22,1.12,33,1,4.14,2,8.29,2.68,12.48,2.32,13.31-3.38,23.94-16.45,27.22a124.34,124.34,0,0,1-32.08,4c-24.82-.43-49.61-2.2-74.41-3.43-18-.89-35.95-1.86-53.54,3.39l-2.48.76c.13-3.55.24-6.62.24-6.62A30.2,30.2,0,0,1,120.5,283c15.48-4.22,31.29-3.66,47.06-3,11.65.5,23.27,1.55,34.91,2.34a3.81,3.81,0,0,0,2.38-.49c-28.4-8.75-57.69-14.24-87.63-10.5C123.28,201.87,179.65,111.64,276.33,88Q267.83,138.3,259.27,189c-3,17.59-5.95,35.16-8.72,52.78-1.45,9.22-5.85,16.74-12.41,23.12C233.77,269.15,229.24,273.23,225,277.23Z"/><path class="cls-1" d="M252.14,366c6.58,41.31,25.15,75.44,60,99.63,18.64,12.93,39.47,20.88,61.59,25.43,9.24,1.9,18.62,3.17,28.71,4.85a48.77,48.77,0,0,1-6,3,203.27,203.27,0,0,1-97,9,212.62,212.62,0,0,1-98.76-41.48c-37.53-28.51-63.57-65.55-76.92-111.06-2.3-7.86-4-15.88-6.08-24.11A80.43,80.43,0,0,1,147,325.77c13.79-.22,26.17,4.16,37.22,12.27a4.79,4.79,0,0,1,1.39,4c-2.56,12.69-4.47,25.43-3.26,38.41,1.74,18.67,6.35,36.29,20.26,50,9.81,9.66,21.94,15.85,34.06,22.05,14.21,7.27,29.58,10.78,44.92,14.44a20.5,20.5,0,0,0,3.26,0C254,435.6,243.44,398.43,250.31,355.77,250.62,359.21,251.6,362.55,252.14,366Z"/><path class="cls-1" d="M385,206.17c-7.55-6.73-10.52-14.93-12.34-23.54-1.13-5.33-1.43-10.85-1.93-16.3-.29-3.1-1-5.72-3.65-7.84-4.62-3.66-5.56-9.12-4.15-14.22a199.14,199.14,0,0,1,8.39-23.05,25.52,25.52,0,0,1,4.75-7c1.31,1.68,3.15,6.16,3.86,8.07,3,8.15,1.89,16.48.33,24.73-1.15,6.05-2.4,12.09-3.8,18.09-3,12.74-.35,24.43,6.3,35.43.71,1.17,3.47,5.89,4.12,7.09C387,207.89,386.09,207.1,385,206.17Z"/><path class="cls-1" d="M606.12,234.39c-15.53,4.63-31.27-4.13-37.7-19-7.15-16.56-4.73-32.88,3.15-48.45,17-33.51,44.46-55.16,78.92-68.56,35.62-13.86,72.17-17,109.55-8.61,18.82,4.23,36,12,49.54,26.12,12.94,13.52,19.74,30.07,20.7,48.6,2.11,40.81-13.46,74.18-44.41,100.36-26.91,22.76-58.6,34-93.47,36.55-8.17.6-16.42.2-24.63-.07-2.93-.1-3,1.81-3.56,3.53-5.3,15.43-10.13,31-15.93,46.28-11.8,31-26,60.83-47.28,86.69-31.85,38.78-72.17,61-123.18,59.56-43.74-1.27-77.77-20.88-100.78-58.54-14.89-24.38-23.6-50.82-23.62-79.49,0-24.65,8.43-47.09,21.21-67.92C385,274.57,395.42,257.77,402,239c5.74-16.43,6.49-33.16,0-49.54-2.18-5.5-5.8-10.53-9.35-15.34-2.61-3.55-4-6.85-3.14-11.35q4.14-22.67,7.73-45.45c1.46-9.24,2.63-18.55-1.66-27.5-.14-.3.07-.77.12-1.25,28.63,9.67,54.23,24,76.67,44.39A214.28,214.28,0,0,1,534.16,230c15.09,48.93,12.74,97.5-6.75,145-13.3,32.45-32.84,60.36-60.16,82.65-2.57,2.1-4.7,1.58-7.14.37A149.3,149.3,0,0,1,427,435.24c-12.75-11.43-24.16-23.93-31.75-39.55-9.66-19.87-13.29-40.92-11.8-62.79,1.45-21.39,6.21-42,15.71-61.44a24.6,24.6,0,0,0,.91-2.58l-.92-.51c-3.47,5.62-7.24,11.09-10.36,16.9-11.88,22.1-19.83,45.35-18.14,70.84,3,45.1,22.66,81.78,59.83,107.19,29.88,20.43,62.61,20.94,95.06,4.6C548.71,456.23,565.09,437.2,579,416c22-33.58,36.18-70.72,48.18-108.78,1.15-3.66,2.33-7.32,3.64-10.92.84-2.29.29-3.33-1.85-4.88a60.33,60.33,0,0,1-11.29-10.47c-1.33-1.62-2.61-5.69-1.62-7.87a6,6,0,0,1,8-2.89c4.51,1.89,8.9,4.06,13.73,6.29,2.3-6.79,4.29-13.46,6.8-19.94,10.54-27.23,21.08-54.47,32-81.56a86.62,86.62,0,0,1,17.6-27.13c8.06-8.56,17.66-12.87,29.39-11.85a10.4,10.4,0,0,1,6.3,3c.62.67-.88,4-2.13,5.53-12.13,15-19.48,32.49-25.93,50.26-10.52,29-20,58.36-30,87.57a5.91,5.91,0,0,0,0,1.49,6.37,6.37,0,0,0,1.73.56c25.94.77,49.7-6,70.88-21.08,15.67-11.19,28.5-25.13,37.08-42.36,10.37-20.81,15.63-42.9,10.92-66.21-5.17-25.52-21.59-40.86-46-48.29-23.26-7.09-46.18-4.68-68.76,3-32.5,11-57.13,31.7-73.23,62-10,18.8-11.36,38.16-1.33,57.62C604,230.8,604.93,232.52,606.12,234.39Z"/></svg>